<svg width="220" height="88" viewBox="0 0 220 88" fill="none" xmlns="http://www.w3.org/2000/svg">
<path d="M65.6856 87.2C62.7625 87.2 59.8393 86.0855 57.61 83.8566L25.4212 51.6741C23.2601 49.5134 22.0772 46.6477 22.0772 43.6C22.0772 40.5523 23.2601 37.6752 25.4212 35.5259L57.5986 3.34335C59.7597 1.18268 62.626 4.40845e-07 65.6743 4.40845e-07C68.7225 4.40845e-07 71.6002 1.18268 73.7499 3.34335L105.939 35.5259C110.397 39.9837 110.397 47.2276 105.939 51.6854L73.7499 83.868C71.532 86.0855 68.6088 87.2 65.6856 87.2ZM65.6856 6.49338C64.3662 6.49338 63.1265 7.00511 62.2052 7.93761L30.0163 40.1202C29.0837 41.0527 28.5718 42.2922 28.5718 43.6C28.5718 44.9191 29.0837 46.1587 30.0163 47.0798L62.2052 79.2624C64.1274 81.1842 67.2553 81.1842 69.1775 79.2624L101.366 47.0798C103.289 45.158 103.289 42.0307 101.366 40.1088L69.1775 7.92624C68.2335 7.00511 66.9937 6.49338 65.6856 6.49338Z" fill="#CE141F"/>
<path d="M43.6084 87.2C40.6853 87.2 37.7621 86.0855 35.5328 83.8566L3.344 51.6741C1.18291 49.5134 0 46.6477 0 43.6C0 40.5523 1.18291 37.6752 3.344 35.5259L35.5328 3.34335C37.6939 1.18268 40.5602 0 43.6084 0C46.6567 0 49.5344 1.18268 51.6841 3.34335L83.8729 35.5259C88.3316 39.9837 88.3316 47.2276 83.8729 51.6854L51.6841 83.8566C49.4548 86.0855 46.5316 87.2 43.6084 87.2ZM43.6084 6.49337C42.289 6.49337 41.0493 7.00511 40.128 7.93761L7.93915 40.1202C7.00647 41.0527 6.49463 42.2922 6.49463 43.6C6.49463 44.9191 7.00647 46.1587 7.93915 47.0798L40.128 79.2624C42.0502 81.1842 45.1781 81.1842 47.1003 79.2624L79.2891 47.0798C81.2113 45.158 81.2113 42.0307 79.2891 40.1088L47.1003 7.92624C46.1676 7.00511 44.9278 6.49337 43.6084 6.49337Z" fill="white"/>
<path d="M43.6085 48.6719C40.7536 48.6719 38.5129 46.4543 38.5015 43.6227V43.5886C38.5129 40.757 40.7536 38.5395 43.6085 38.5395C46.4634 38.5395 48.7041 40.757 48.7155 43.5886V43.6227C48.7041 46.4543 46.452 48.6719 43.6085 48.6719ZM43.5857 43.6114L42.2095 43.6227C42.2095 44.2596 42.835 45.0329 43.5971 45.0329C44.3592 45.0329 44.9848 44.2596 44.9848 43.6227L43.5857 43.6114ZM43.6085 42.1785C42.8464 42.1785 42.2208 42.9518 42.2208 43.5886L43.6312 43.6L45.0075 43.5886C44.9961 42.9518 44.3706 42.1785 43.6085 42.1785Z" fill="white"/>
<path d="M43.6085 28.8733C40.7536 28.8733 38.5129 26.6558 38.5015 23.8242V23.7901C38.5129 20.9585 40.7536 18.741 43.6085 18.741C46.4634 18.741 48.7041 20.9585 48.7155 23.7901V23.8242C48.7041 26.6558 46.452 28.8733 43.6085 28.8733ZM43.5857 23.8128L42.2095 23.8242C42.2095 24.461 42.835 25.2343 43.5971 25.2343C44.3592 25.2343 44.9848 24.461 44.9848 23.8242L43.5857 23.8128ZM43.6085 22.38C42.8464 22.38 42.2208 23.1533 42.2208 23.7901L43.6312 23.8015L45.0075 23.7901C44.9961 23.1533 44.3706 22.38 43.6085 22.38Z" fill="white"/>
<path d="M43.6085 68.4704C40.7536 68.4704 38.5129 66.2529 38.5015 63.4213V63.3871C38.5129 60.5555 40.7536 58.338 43.6085 58.338C46.4634 58.338 48.7041 60.5555 48.7155 63.3871V63.4213C48.7041 66.2415 46.452 68.4704 43.6085 68.4704ZM43.5971 63.4099L42.2095 63.4213C42.2095 64.0581 42.835 64.8314 43.5971 64.8314C44.3592 64.8314 44.9848 64.0581 44.9848 63.4213L43.5971 63.4099ZM43.6085 61.9657C42.8464 61.9657 42.2208 62.7389 42.2208 63.3758L43.6199 63.3871L45.0075 63.3758C44.9961 62.7389 44.3706 61.9657 43.6085 61.9657Z" fill="white"/>
<path d="M23.806 41.7464C26.2287 41.7578 26.2287 45.4423 23.806 45.4537C21.3833 45.4423 21.3833 41.7578 23.806 41.7464Z" fill="white"/>
<path d="M23.7947 48.706C20.9625 48.6947 18.7446 46.4544 18.7446 43.6C18.7446 40.7457 20.9625 38.5054 23.7947 38.494H23.8288C26.661 38.5054 28.8789 40.7457 28.8789 43.6C28.8789 46.4544 26.661 48.6947 23.8288 48.706H23.7947Z" fill="white"/>
<path d="M63.3995 48.706C60.5673 48.6947 58.3493 46.4544 58.3493 43.6C58.3493 40.7457 60.5673 38.5054 63.3995 38.494H63.4336C66.2657 38.5054 68.4837 40.7457 68.4837 43.6C68.4837 46.4544 66.2657 48.6947 63.4336 48.706H63.3995ZM63.4108 43.6114L63.4222 44.9988C64.0592 44.9988 64.8326 44.3733 64.8326 43.6114C64.8326 42.8495 64.0592 42.224 63.4222 42.224L63.4108 43.6114ZM63.3881 42.2127C62.7511 42.2127 61.9777 42.8381 61.9777 43.6C61.9777 44.362 62.7511 44.9874 63.3881 44.9874L63.3995 43.5887L63.3881 42.2127Z" fill="white"/>
<path d="M130.546 4.95453C131.941 4.95453 132.987 4.86576 133.685 4.68821C133.995 5.68248 134.15 6.659 134.15 7.61776C134.15 8.18592 133.878 8.46999 133.336 8.46999H128.802V34.5696L129.034 39.5765C127.717 39.7541 126.418 39.8428 125.14 39.8428C124.519 39.8428 124.209 39.541 124.209 38.9373V8.46999H122.466C121.07 8.46999 120.024 8.55877 119.326 8.73632C119.016 7.74204 118.861 6.76553 118.861 5.80677C118.861 5.23861 119.133 4.95453 119.675 4.95453H130.546Z" fill="white"/>
<path d="M136.441 38.9373V10.0679C136.441 8.29245 137.1 6.90757 138.417 5.91329C139.735 4.91902 141.537 4.42189 143.823 4.42189C146.11 4.42189 147.873 4.88351 149.113 5.80677C150.392 6.73002 151.031 8.07939 151.031 9.85487V35.049C151.031 35.7947 151.186 36.3274 151.496 36.647C151.845 36.931 152.427 37.0731 153.24 37.0731C153.24 39.0971 152 40.1092 149.52 40.1092C147.466 40.1092 146.439 38.8841 146.439 36.4339V26.2604H141.033V34.5696L141.266 39.5765C139.948 39.7541 138.65 39.8428 137.371 39.8428C136.751 39.8428 136.441 39.541 136.441 38.9373ZM141.033 10.0679V22.7449H146.439V10.0679C146.439 9.39325 146.187 8.87836 145.683 8.52326C145.18 8.13265 144.521 7.93735 143.707 7.93735C142.893 7.93735 142.234 8.13265 141.731 8.52326C141.266 8.87836 141.033 9.39325 141.033 10.0679Z" fill="white"/>
<path d="M155.167 17.2587V10.0679C155.167 8.29245 155.826 6.90757 157.144 5.91329C158.461 4.91902 160.225 4.42189 162.434 4.42189C164.681 4.42189 166.464 4.88351 167.782 5.80677C169.099 6.69451 169.758 7.86633 169.758 9.32223V15.927C169.758 16.5662 169.254 17.0101 168.247 17.2587C167.704 17.4007 167.161 17.4717 166.619 17.4717C166.076 17.4717 165.534 17.4184 164.991 17.3119C165.108 16.4597 165.166 15.5542 165.166 14.5954V10.0679C165.166 9.39325 164.914 8.87836 164.41 8.52326C163.906 8.13265 163.247 7.93735 162.434 7.93735C161.62 7.93735 160.961 8.13265 160.457 8.52326C159.992 8.87836 159.76 9.39325 159.76 10.0679V16.2999C159.76 17.5427 160.205 18.4127 161.097 18.9099L167.258 22.5318C169.002 23.5261 169.874 25.053 169.874 27.1126V34.4631C169.874 36.2386 169.196 37.6235 167.84 38.6178C166.483 39.612 164.681 40.1092 162.434 40.1092C160.225 40.1092 158.442 39.6653 157.086 38.7775C155.729 37.8543 155.051 36.6647 155.051 35.2088V28.604C155.051 27.9648 155.555 27.521 156.562 27.2724C157.105 27.1304 157.648 27.0593 158.19 27.0593C158.733 27.0593 159.275 27.1126 159.818 27.2191C159.701 28.0714 159.643 28.9769 159.643 29.9356V34.4631C159.643 35.1023 159.915 35.6172 160.457 36.0078C161 36.3984 161.678 36.5937 162.492 36.5937C163.305 36.5937 163.964 36.3984 164.468 36.0078C165.011 35.6172 165.282 35.1023 165.282 34.4631V28.4442C165.282 27.0593 164.759 26.0651 163.712 25.4614L157.551 21.7861C155.962 20.8629 155.167 19.3537 155.167 17.2587Z" fill="white"/>
<path d="M183.567 4.95453C184.962 4.95453 186.008 4.86576 186.706 4.68821C187.016 5.68248 187.171 6.659 187.171 7.61776C187.171 8.18592 186.899 8.46999 186.357 8.46999H181.823V34.5696L182.055 39.5765C180.738 39.7541 179.439 39.8428 178.16 39.8428C177.54 39.8428 177.23 39.541 177.23 38.9373V8.46999H175.486C174.091 8.46999 173.045 8.55877 172.347 8.73632C172.037 7.74204 171.882 6.76553 171.882 5.80677C171.882 5.23861 172.154 4.95453 172.696 4.95453H183.567Z" fill="white"/>
<path d="M200.151 9.32223C200.151 7.58225 200.015 6.12635 199.744 4.95453C201.062 4.81249 202.399 4.74147 203.755 4.74147C204.414 4.74147 204.743 5.00779 204.743 5.54044V34.4631C204.743 36.2386 204.084 37.6235 202.767 38.6178C201.449 39.612 199.666 40.1092 197.419 40.1092C195.21 40.1092 193.447 39.6653 192.129 38.7775C190.811 37.8543 190.152 36.6647 190.152 35.2088V31.5868C190.152 30.9477 190.656 30.5038 191.664 30.2552C192.206 30.1132 192.749 30.0422 193.292 30.0422C193.834 30.0422 194.377 30.0954 194.919 30.202C194.803 31.0542 194.745 31.9597 194.745 32.9184V34.4631C194.745 35.1378 194.997 35.6705 195.5 36.0611C196.004 36.4162 196.663 36.5937 197.477 36.5937C198.291 36.5937 198.93 36.4162 199.395 36.0611C199.899 35.6705 200.151 35.1378 200.151 34.4631V26.1538C199.143 27.0771 197.787 27.5387 196.082 27.5387C192.129 27.5387 190.152 25.8343 190.152 22.4253V9.48202C190.152 8.73632 189.978 8.22143 189.629 7.93735C189.319 7.61776 188.757 7.45797 187.944 7.45797C187.944 5.43391 189.184 4.42189 191.664 4.42189C193.718 4.42189 194.745 5.64697 194.745 8.09714V22.1057C194.745 23.3841 195.442 24.0233 196.837 24.0233C198.271 24.0233 199.376 23.4018 200.151 22.159V9.32223Z" fill="white"/>
<path d="M130.429 69.4087C129.383 69.4087 128.337 69.4975 127.29 69.675C126.98 68.6808 126.825 67.7042 126.825 66.7455C126.825 66.1773 127.097 65.8932 127.639 65.8932H135.022V77.718C135.022 78.4637 135.177 78.9963 135.487 79.3159C135.797 79.6355 136.359 79.7953 137.172 79.7953C137.211 80.7186 136.94 81.4465 136.359 81.9791C135.816 82.5118 135.022 82.7781 133.975 82.7781C132.348 82.7781 131.301 82.2277 130.836 81.1269C129.751 82.2277 128.259 82.7781 126.36 82.7781C122.407 82.7781 120.431 81.0736 120.431 77.6647V52.7369C120.431 50.9614 121.09 49.5765 122.407 48.5822C123.725 47.588 125.488 47.0908 127.697 47.0908C129.945 47.0908 131.728 47.5525 133.045 48.4757C134.363 49.3635 135.022 50.5353 135.022 51.9912V58.0633C135.022 58.7025 134.518 59.1464 133.51 59.395C132.968 59.537 132.425 59.608 131.883 59.608C131.34 59.608 130.798 59.5548 130.255 59.4482C130.371 58.596 130.429 57.6905 130.429 56.7317V52.7369C130.429 52.0622 130.177 51.5473 129.674 51.1922C129.17 50.8016 128.511 50.6063 127.697 50.6063C126.883 50.6063 126.225 50.8016 125.721 51.1922C125.256 51.5473 125.023 52.0622 125.023 52.7369V77.3451C125.023 78.6235 125.721 79.2627 127.116 79.2627C128.55 79.2627 129.654 78.6412 130.429 77.3984V69.4087Z" fill="#CE141F"/>
<path d="M139.506 81.6063V52.7369C139.506 50.9614 140.165 49.5765 141.483 48.5822C142.8 47.588 144.602 47.0908 146.889 47.0908C149.175 47.0908 150.939 47.5525 152.179 48.4757C153.457 49.399 154.097 50.7483 154.097 52.5238V77.718C154.097 78.4637 154.252 78.9963 154.562 79.3159C154.911 79.6 155.492 79.742 156.306 79.742C156.306 81.7661 155.066 82.7781 152.586 82.7781C150.532 82.7781 149.505 81.553 149.505 79.1029V68.9293H144.099V77.2386L144.331 82.2455C143.013 82.423 141.715 82.5118 140.436 82.5118C139.816 82.5118 139.506 82.21 139.506 81.6063ZM144.099 52.7369V65.4139H149.505V52.7369C149.505 52.0622 149.253 51.5473 148.749 51.1922C148.245 50.8016 147.586 50.6063 146.773 50.6063C145.959 50.6063 145.3 50.8016 144.796 51.1922C144.331 51.5473 144.099 52.0622 144.099 52.7369Z" fill="#CE141F"/>
<path d="M166.603 51.1389C165.557 51.1389 164.511 51.6183 163.464 52.5771V77.2386L163.697 82.2455C162.379 82.423 161.081 82.5118 159.802 82.5118C159.182 82.5118 158.872 82.21 158.872 81.6063V52.7901C158.872 52.0089 158.717 51.4585 158.407 51.1389C158.097 50.7838 157.535 50.6063 156.721 50.6063C156.683 49.683 156.954 48.9551 157.535 48.4225C158.116 47.8898 159.047 47.6235 160.325 47.6235C161.604 47.6235 162.515 48.2094 163.058 49.3812C164.569 48.2094 166.119 47.6235 167.708 47.6235C170.072 47.6235 171.7 48.2982 172.591 49.6475C174.18 48.2982 175.846 47.6235 177.59 47.6235C181.427 47.6235 183.345 49.3635 183.345 52.8434V77.718C183.345 78.4637 183.5 78.9963 183.81 79.3159C184.159 79.6 184.74 79.742 185.554 79.742C185.554 81.7661 184.314 82.7781 181.834 82.7781C179.78 82.7781 178.753 81.553 178.753 79.1029V53.163C178.753 51.8136 177.997 51.1389 176.486 51.1389C175.284 51.1389 174.277 51.5828 173.463 52.4706V77.2386L173.695 82.2455C172.378 82.423 171.079 82.5118 169.801 82.5118C169.181 82.5118 168.871 82.21 168.871 81.6063V53.163C168.871 51.8136 168.115 51.1389 166.603 51.1389Z" fill="#CE141F"/>
<path d="M195.489 64.242C196.884 64.242 197.93 64.1533 198.628 63.9757C198.938 64.97 199.093 65.9465 199.093 66.9053C199.093 67.4734 198.821 67.7575 198.279 67.7575H194.849C194.035 67.7575 193.377 67.9528 192.873 68.3434C192.408 68.734 192.175 69.2489 192.175 69.8881V77.1321C192.175 77.8068 192.408 78.3394 192.873 78.73C193.377 79.0851 194.035 79.2627 194.849 79.2627C195.663 79.2627 196.322 79.0851 196.826 78.73C197.329 78.3394 197.581 77.8068 197.581 77.1321V75.8005L197.407 73.084C197.949 72.9774 198.492 72.9242 199.035 72.9242C199.577 72.9242 200.12 72.9952 200.662 73.1372C201.67 73.3858 202.174 73.8297 202.174 74.4688V77.8778C202.174 79.3337 201.515 80.5232 200.197 81.4465C198.88 82.3342 197.097 82.7781 194.849 82.7781C192.64 82.7781 190.877 82.281 189.559 81.2867C188.242 80.2924 187.583 78.9076 187.583 77.1321V69.675C187.583 68.0771 188.145 66.852 189.269 65.9998C188.145 65.1475 187.583 63.9224 187.583 62.3245V52.7369C187.583 50.9614 188.242 49.5765 189.559 48.5822C190.877 47.588 192.621 47.0908 194.791 47.0908C197 47.0908 198.744 47.5525 200.023 48.4757C201.302 49.3635 201.941 50.5353 201.941 51.9912V56.4654C201.941 57.1046 201.437 57.5485 200.43 57.797C199.887 57.9391 199.345 58.0101 198.802 58.0101C198.26 58.0101 197.717 57.9568 197.174 57.8503C197.291 56.9981 197.349 56.0926 197.349 55.1338V52.7369C197.349 51.3165 196.496 50.6063 194.791 50.6063C193.977 50.6063 193.338 50.8016 192.873 51.1922C192.408 51.5473 192.175 52.0622 192.175 52.7369V62.1114C192.175 62.7506 192.388 63.2655 192.815 63.6561C193.28 64.0467 193.88 64.242 194.617 64.242H195.489Z" fill="#CE141F"/>
<path d="M205.293 59.9276V52.7369C205.293 50.9614 205.952 49.5765 207.27 48.5822C208.587 47.588 210.35 47.0908 212.559 47.0908C214.807 47.0908 216.59 47.5525 217.907 48.4757C219.225 49.3635 219.884 50.5353 219.884 51.9912V58.596C219.884 59.2352 219.38 59.679 218.372 59.9276C217.83 60.0696 217.287 60.1407 216.745 60.1407C216.202 60.1407 215.66 60.0874 215.117 59.9809C215.233 59.1286 215.291 58.2231 215.291 57.2644V52.7369C215.291 52.0622 215.04 51.5473 214.536 51.1922C214.032 50.8016 213.373 50.6063 212.559 50.6063C211.746 50.6063 211.087 50.8016 210.583 51.1922C210.118 51.5473 209.885 52.0622 209.885 52.7369V58.9688C209.885 60.2117 210.331 61.0817 211.222 61.5788L217.384 65.2008C219.128 66.1951 220 67.722 220 69.7816V77.1321C220 78.9076 219.322 80.2924 217.965 81.2867C216.609 82.281 214.807 82.7781 212.559 82.7781C210.35 82.7781 208.568 82.3342 207.211 81.4465C205.855 80.5232 205.177 79.3337 205.177 77.8778V71.273C205.177 70.6338 205.681 70.1899 206.688 69.9414C207.231 69.7993 207.773 69.7283 208.316 69.7283C208.858 69.7283 209.401 69.7816 209.944 69.8881C209.827 70.7403 209.769 71.6458 209.769 72.6046V77.1321C209.769 77.7712 210.04 78.2861 210.583 78.6767C211.125 79.0674 211.804 79.2627 212.617 79.2627C213.431 79.2627 214.09 79.0674 214.594 78.6767C215.136 78.2861 215.408 77.7712 215.408 77.1321V71.1132C215.408 69.7283 214.885 68.734 213.838 68.1303L207.676 64.4551C206.088 63.5318 205.293 62.0227 205.293 59.9276Z" fill="#CE141F"/>
</svg>
